<svg width="130" height="44" viewBox="0 0 130 44" fill="none" xmlns="http://www.w3.org/2000/svg">
<path d="M38.3889 28.6734L27.4788 21.9998L38.3885 15.3261C38.5762 15.2111 38.7107 15.0264 38.7622 14.8121C38.8137 14.5979 38.778 14.372 38.6634 14.1843L35.4575 8.94396C35.2188 8.55283 34.7068 8.42951 34.3157 8.66867L23.9013 15.0396V2.83042C23.9013 2.37203 23.5293 2 23.0709 2H16.9286C16.4702 2 16.0982 2.37203 16.0982 2.83042V15.0396L5.68341 8.66909C5.29145 8.42993 4.78073 8.55283 4.54157 8.94437L1.33571 14.1847C1.22111 14.3724 1.1854 14.5983 1.23689 14.8125C1.28837 15.0268 1.4229 15.2115 1.61058 15.3266L12.5207 21.9998L1.61058 28.6734C1.4229 28.788 1.28837 28.9732 1.23689 29.1871C1.1854 29.4017 1.22111 29.6276 1.33571 29.8153L4.54157 35.0552C4.78073 35.4463 5.29145 35.5701 5.68341 35.3309L16.0982 28.9599V41.1692C16.0982 41.6276 16.4702 41.9996 16.9286 41.9996H23.0709C23.5293 41.9996 23.9013 41.6276 23.9013 41.1692V28.9604L34.3161 35.3305C34.7072 35.5697 35.2192 35.4463 35.458 35.0556L38.6638 29.8153C38.7784 29.6276 38.8141 29.4017 38.7626 29.1875C38.7116 28.9728 38.5766 28.7885 38.3889 28.6734Z" fill="url(#paint0_radial_2_602)"/>
<path d="M49.9766 20V4.29492H53.3066V17.25H59.6768V20H49.9766ZM76.6709 12.126C76.6709 14.7256 76.0264 16.7236 74.7373 18.1201C73.4482 19.5166 71.6006 20.2148 69.1943 20.2148C66.7881 20.2148 64.9404 19.5166 63.6514 18.1201C62.3623 16.7236 61.7178 14.7184 61.7178 12.1045C61.7178 9.49056 62.3623 7.49609 63.6514 6.12109C64.9476 4.73893 66.8024 4.04785 69.2158 4.04785C71.6292 4.04785 73.4733 4.74251 74.748 6.13184C76.0299 7.52116 76.6709 9.51921 76.6709 12.126ZM65.209 12.126C65.209 13.8805 65.542 15.2018 66.208 16.0898C66.874 16.9779 67.8695 17.4219 69.1943 17.4219C71.8512 17.4219 73.1797 15.6566 73.1797 12.126C73.1797 8.58822 71.8584 6.81934 69.2158 6.81934C67.891 6.81934 66.8919 7.26693 66.2188 8.16211C65.5456 9.05013 65.209 10.3714 65.209 12.126ZM86.5967 6.84082C85.3434 6.84082 84.373 7.31348 83.6855 8.25879C82.998 9.19694 82.6543 10.5075 82.6543 12.1904C82.6543 15.6924 83.9684 17.4434 86.5967 17.4434C87.6995 17.4434 89.0352 17.1676 90.6035 16.6162V19.4092C89.3145 19.9463 87.875 20.2148 86.2852 20.2148C84.0007 20.2148 82.2533 19.5238 81.043 18.1416C79.8327 16.7523 79.2275 14.7614 79.2275 12.1689C79.2275 10.5361 79.5247 9.10742 80.1191 7.88281C80.7135 6.65104 81.5658 5.70931 82.6758 5.05762C83.793 4.39876 85.0999 4.06934 86.5967 4.06934C88.1221 4.06934 89.6546 4.43815 91.1943 5.17578L90.1201 7.88281C89.5329 7.60352 88.9421 7.36003 88.3477 7.15234C87.7533 6.94466 87.1696 6.84082 86.5967 6.84082ZM103.569 20L102.431 16.2617H96.7051L95.5664 20H91.9785L97.5215 4.23047H101.593L107.157 20H103.569ZM101.636 13.4688C100.583 10.0814 99.9886 8.16569 99.8525 7.72168C99.7236 7.27767 99.6305 6.92676 99.5732 6.66895C99.3369 7.58561 98.6602 9.85221 97.543 13.4688H101.636ZM109.145 20V4.29492H112.475V17.25H118.845V20H109.145Z" fill="#21A038"/>
<path d="M53.3066 33.6855H54.4023C55.4264 33.6855 56.1927 33.485 56.7012 33.084C57.2096 32.6758 57.4639 32.085 57.4639 31.3115C57.4639 30.5309 57.249 29.9544 56.8193 29.582C56.3968 29.2096 55.7308 29.0234 54.8213 29.0234H53.3066V33.6855ZM60.8262 31.1934C60.8262 32.8835 60.2962 34.1761 59.2363 35.0713C58.1836 35.9665 56.6833 36.4141 54.7354 36.4141H53.3066V42H49.9766V26.2949H54.9932C56.8981 26.2949 58.3447 26.7067 59.333 27.5303C60.3285 28.3467 60.8262 29.5677 60.8262 31.1934ZM76.6602 42H73.3408V35.2217H67.1211V42H63.791V26.2949H67.1211V32.4502H73.3408V26.2949H76.6602V42ZM90.249 42L89.1104 38.2617H83.3848L82.2461 42H78.6582L84.2012 26.2305H88.2725L93.8369 42H90.249ZM88.3154 35.4688C87.2627 32.0814 86.6683 30.1657 86.5322 29.7217C86.4033 29.2777 86.3102 28.9268 86.2529 28.6689C86.0166 29.5856 85.3398 31.8522 84.2227 35.4688H88.3154ZM99.1543 33.2666H100.229C101.281 33.2666 102.058 33.0911 102.56 32.7402C103.061 32.3893 103.312 31.8379 103.312 31.0859C103.312 30.3411 103.054 29.8112 102.538 29.4961C102.03 29.181 101.238 29.0234 100.164 29.0234H99.1543V33.2666ZM99.1543 35.9736V42H95.8242V26.2949H100.4C102.535 26.2949 104.114 26.6852 105.138 27.4658C106.162 28.2393 106.674 29.4173 106.674 31C106.674 31.9238 106.42 32.7474 105.911 33.4707C105.403 34.1868 104.683 34.749 103.752 35.1572C106.115 38.6878 107.655 40.9688 108.371 42H104.676L100.927 35.9736H99.1543ZM116.997 42L113.216 29.6787H113.119C113.255 32.1852 113.323 33.8574 113.323 34.6953V42H110.348V26.2949H114.881L118.598 38.3047H118.662L122.604 26.2949H127.138V42H124.033V34.5664C124.033 34.2155 124.037 33.8109 124.044 33.3525C124.058 32.8942 124.108 31.6768 124.194 29.7002H124.098L120.048 42H116.997Z" fill="#8168F0"/>
<defs>
<radialGradient id="paint0_radial_2_602" cx="0" cy="0" r="1" gradientUnits="userSpaceOnUse" gradientTransform="translate(19.9998 21.9998) rotate(89.9994) scale(21.5002 20.1952)">
<stop stop-color="#84CC9D"/>
<stop offset="0.9999" stop-color="#8866EC"/>
<stop offset="1" stop-color="#A585FF"/>
</radialGradient>
</defs>
</svg>
