<svg width="30" height="30" viewBox="0 0 30 30" fill="none" xmlns="http://www.w3.org/2000/svg">
<path d="M14.9624 7.12434C16.2149 7.12434 17.2319 6.08848 17.2319 4.88313C17.2319 3.62127 16.2149 2.60425 14.9624 2.60425C13.71 2.60425 12.7212 3.62127 12.7212 4.88313C12.7212 6.08848 13.71 7.12434 14.9624 7.12434ZM18.1736 25.0634C18.7103 25.0634 19.1906 24.6679 19.1906 24.0088C19.1906 23.7639 19.1247 23.5379 18.9928 23.2742L16.9776 19.1873C16.7987 18.8201 16.5915 18.4905 16.4032 18.2268L15.1696 16.4753L15.2449 16.2399C15.5839 15.1569 15.7158 14.4977 15.7911 13.4619L15.9983 10.5521C16.1019 9.12071 15.2732 7.95302 13.7759 7.95302C12.6836 7.95302 11.8925 8.54628 10.8755 9.53505L9.33116 11.07C8.80382 11.5879 8.63431 12.0117 8.58723 12.6709L8.38947 15.0627C8.34239 15.7125 8.70965 16.1363 9.29349 16.1739C9.84909 16.2116 10.2634 15.882 10.3293 15.1852L10.5459 12.5673L11.4594 11.7574C11.6289 11.6068 11.8737 11.6915 11.8549 11.9458L11.6854 14.3C11.6006 15.4394 12.0997 16.2681 12.6647 16.9744L14.6799 19.5075C14.8777 19.7523 14.9059 19.8465 15.0001 20.0254L17.1471 24.3854C17.4014 24.8939 17.7781 25.0634 18.1736 25.0634ZM18.6162 13.9421H20.8951C21.5542 13.9421 21.9686 13.556 21.9686 12.9722C21.9686 12.3884 21.5448 12.0023 20.8856 12.0023H18.5032L16.8458 10.2036L16.6669 12.7933L17.3731 13.4995C17.7122 13.8386 18.0323 13.9421 18.6162 13.9421ZM9.03924 25.0634C9.36883 25.0634 9.66075 24.9128 9.86792 24.6679L12.9001 21.0613C13.2109 20.6846 13.2486 20.5904 13.3804 20.2232C13.4557 19.9783 13.5217 19.7429 13.5782 19.5169L11.8455 17.351L11.3369 19.7147L8.46481 23.1236C8.20114 23.4249 8.02222 23.6886 8.02222 24.0653C8.02222 24.6491 8.46481 25.0634 9.03924 25.0634Z" fill="#FAFAFA"/>
</svg>
