<svg xmlns="http://www.w3.org/2000/svg" xmlns:xlink="http://www.w3.org/1999/xlink"><defs><symbol viewBox="0 0 33 33" id="i-basket">
    <g clip-path="url(#i-basket_clip0_2_444)">
        <path d="M30.8121 31.9153L28.304 8.03069C28.2514 7.53068 27.8299 7.15101 27.3271 7.15101H22.613V6.07621C22.613 2.72591 19.8871 0 16.5368 0C13.1862 0 10.4603 2.72591 10.4603 6.07621V7.15101H5.74619C5.2434 7.15101 4.82194 7.53068 4.76932 8.03069L2.26119 31.9153C2.23224 32.192 2.32212 32.4682 2.50818 32.6752C2.69449 32.8819 2.95985 32.9999 3.23806 32.9999H29.835C30.1134 32.9999 30.3788 32.8819 30.5649 32.6752C30.7514 32.4682 30.8411 32.192 30.8121 31.9153ZM12.4246 6.07621C12.4246 3.80902 14.2693 1.96431 16.5368 1.96431C18.804 1.96431 20.6487 3.80902 20.6487 6.07621V7.15101H12.4246V6.07621ZM4.32872 31.0356L6.63065 9.11532H10.4603V11.2798C10.4603 11.8221 10.9002 12.2619 11.4425 12.2619C11.9848 12.2619 12.4246 11.8221 12.4246 11.2798V9.11532H20.6487V11.2798C20.6487 11.8221 21.0885 12.2619 21.6308 12.2619C22.1731 12.2619 22.613 11.8221 22.613 11.2798V9.11532H26.4426L28.7446 31.0356H4.32872Z" />
    </g>
    <defs>
        
    </defs>
</symbol><clipPath id="i-basket_clip0_2_444">
            <rect width="33" height="33" />
        </clipPath><symbol viewBox="0 0 24 24" fill="none" id="i-order-collect">
<g clip-path="url(#i-order-collect_clip0_2_491)">
<path d="M12 0L0 4.44452V19.5498L12 23.9943L24 19.5498V4.44452L12 0ZM12 8.19433L8.96887 7.07172L17.332 3.9743L20.3632 5.09692L12 8.19433ZM14.6327 2.97455L6.26953 6.07196L3.63684 5.09692L12 1.99951L14.6327 2.97455ZM1.875 6.44385L5.4375 7.7633V12.3926L7.31232 13.0869C7.31232 13.0862 7.3125 13.0854 7.3125 13.0847V8.45782L11.0625 9.84668V21.6475L1.875 18.2448V6.44385ZM12.9375 21.6475V9.84668L22.125 6.44385V18.2448L12.9375 21.6475Z" fill="white" />
</g>
<defs>

</defs>
</symbol><clipPath id="i-order-collect_clip0_2_491">
<rect width="24" height="24" fill="white" />
</clipPath><symbol viewBox="0 0 26 26" fill="none" id="i-order-delivered">
<g clip-path="url(#i-order-delivered_clip0_2_497)">
<path d="M13 26C9.52758 26 6.263 24.6477 3.80758 22.1924C1.35225 19.737 0 16.4724 0 13C0 9.52758 1.35225 6.263 3.80758 3.80758C6.263 1.35225 9.52758 0 13 0C16.4724 0 19.737 1.35225 22.1924 3.80758C24.6477 6.263 26 9.52758 26 13C26 16.4724 24.6477 19.737 22.1924 22.1924C19.737 24.6477 16.4724 26 13 26ZM13 2.03125C6.9518 2.03125 2.03125 6.9518 2.03125 13C2.03125 19.0482 6.9518 23.9688 13 23.9688C19.0482 23.9688 23.9688 19.0482 23.9688 13C23.9688 6.9518 19.0482 2.03125 13 2.03125ZM17.7601 15.2439C17.2869 14.9427 16.6591 15.0822 16.358 15.5555C16.3455 15.5752 15.0815 17.5226 12.9492 17.5226C10.8169 17.5226 9.55297 15.5752 9.54043 15.5555C9.23929 15.0823 8.61159 14.9428 8.13836 15.2439C7.66512 15.5451 7.52563 16.1728 7.82676 16.646C7.90232 16.7647 9.7144 19.5539 12.9492 19.5539C16.184 19.5539 17.9961 16.7648 18.0717 16.646C18.3728 16.1728 18.2333 15.5451 17.7601 15.2439ZM8.53125 8.37891C9.23239 8.37891 9.80078 8.9473 9.80078 9.64844C9.80078 10.3496 9.23239 10.918 8.53125 10.918C7.83011 10.918 7.26172 10.3496 7.26172 9.64844C7.26172 8.9473 7.83011 8.37891 8.53125 8.37891ZM16.1484 9.64844C16.1484 10.3496 16.7168 10.918 17.418 10.918C18.1191 10.918 18.6875 10.3496 18.6875 9.64844C18.6875 8.9473 18.1191 8.37891 17.418 8.37891C16.7168 8.37891 16.1484 8.9473 16.1484 9.64844Z" fill="white" />
</g>
<defs>

</defs>
</symbol><clipPath id="i-order-delivered_clip0_2_497">
<rect width="26" height="26" fill="white" />
</clipPath><symbol viewBox="0 0 30 30" fill="none" id="i-order-in-delivery">
<path d="M14.9624 7.12434C16.2149 7.12434 17.2319 6.08848 17.2319 4.88313C17.2319 3.62127 16.2149 2.60425 14.9624 2.60425C13.71 2.60425 12.7212 3.62127 12.7212 4.88313C12.7212 6.08848 13.71 7.12434 14.9624 7.12434ZM18.1736 25.0634C18.7103 25.0634 19.1906 24.6679 19.1906 24.0088C19.1906 23.7639 19.1247 23.5379 18.9928 23.2742L16.9776 19.1873C16.7987 18.8201 16.5915 18.4905 16.4032 18.2268L15.1696 16.4753L15.2449 16.2399C15.5839 15.1569 15.7158 14.4977 15.7911 13.4619L15.9983 10.5521C16.1019 9.12071 15.2732 7.95302 13.7759 7.95302C12.6836 7.95302 11.8925 8.54628 10.8755 9.53505L9.33116 11.07C8.80382 11.5879 8.63431 12.0117 8.58723 12.6709L8.38947 15.0627C8.34239 15.7125 8.70965 16.1363 9.29349 16.1739C9.84909 16.2116 10.2634 15.882 10.3293 15.1852L10.5459 12.5673L11.4594 11.7574C11.6289 11.6068 11.8737 11.6915 11.8549 11.9458L11.6854 14.3C11.6006 15.4394 12.0997 16.2681 12.6647 16.9744L14.6799 19.5075C14.8777 19.7523 14.9059 19.8465 15.0001 20.0254L17.1471 24.3854C17.4014 24.8939 17.7781 25.0634 18.1736 25.0634ZM18.6162 13.9421H20.8951C21.5542 13.9421 21.9686 13.556 21.9686 12.9722C21.9686 12.3884 21.5448 12.0023 20.8856 12.0023H18.5032L16.8458 10.2036L16.6669 12.7933L17.3731 13.4995C17.7122 13.8386 18.0323 13.9421 18.6162 13.9421ZM9.03924 25.0634C9.36883 25.0634 9.66075 24.9128 9.86792 24.6679L12.9001 21.0613C13.2109 20.6846 13.2486 20.5904 13.3804 20.2232C13.4557 19.9783 13.5217 19.7429 13.5782 19.5169L11.8455 17.351L11.3369 19.7147L8.46481 23.1236C8.20114 23.4249 8.02222 23.6886 8.02222 24.0653C8.02222 24.6491 8.46481 25.0634 9.03924 25.0634Z" fill="#FAFAFA" />
</symbol><symbol viewBox="0 0 24 24" fill="none" id="i-paid">
<path d="M20.7614 3H3.23859C1.45281 3 0 4.54462 0 6.44326V16.5567C0 18.4554 1.45281 20 3.23859 20H20.7614C22.5472 20 24 18.4554 24 16.5567V6.44326C24 4.54462 22.5472 3 20.7614 3ZM3.23859 5.09589H20.7614C21.4602 5.09589 22.0287 5.70031 22.0287 6.44326V7.25831H1.97131V6.44326C1.97131 5.70031 2.5398 5.09589 3.23859 5.09589ZM20.7614 17.9041H3.23859C2.5398 17.9041 1.97131 17.2997 1.97131 16.5567V9.3542H22.0287V16.5567C22.0287 17.2997 21.4602 17.9041 20.7614 17.9041Z" fill="white" />
<path d="M5.99188 12.5164H4.48993C3.94557 12.5164 3.50427 12.9577 3.50427 13.502C3.50427 14.0464 3.94557 14.4877 4.48993 14.4877H5.99188C6.53625 14.4877 6.97754 14.0464 6.97754 13.502C6.97754 12.9577 6.53625 12.5164 5.99188 12.5164Z" fill="white" />
</symbol><symbol viewBox="0 0 17 18" id="i-person">
    <g clip-path="url(#i-person_clip0_911_12)">
        <path d="M8.28683 8.84242C10.5657 8.84242 12.4114 6.82722 12.4114 4.36C12.4114 1.93045 10.5657 0 8.28683 0C6.01737 0 4.15283 1.95871 4.16225 4.37884C4.17167 6.83663 6.00795 8.84242 8.28683 8.84242ZM8.28683 7.19448C6.9873 7.19448 5.88553 5.96087 5.88553 4.37884C5.87612 2.83447 6.97789 1.64795 8.28683 1.64795C9.60519 1.64795 10.6881 2.81564 10.6881 4.36C10.6881 5.94203 9.59577 7.19448 8.28683 7.19448ZM2.41071 17.6001H14.1535C15.7826 17.6001 16.5642 17.0822 16.5642 15.971C16.5642 13.3813 13.3343 9.93478 8.28683 9.93478C3.2394 9.93478 0 13.3813 0 15.971C0 17.0822 0.781599 17.6001 2.41071 17.6001ZM2.11879 15.9521C1.89279 15.9521 1.80804 15.8768 1.80804 15.7073C1.80804 14.2665 4.134 11.5827 8.28683 11.5827C12.4302 11.5827 14.7562 14.2665 14.7562 15.7073C14.7562 15.8768 14.6715 15.9521 14.4455 15.9521H2.11879Z" />
    </g>
    <defs>
        
    </defs>
</symbol><clipPath id="i-person_clip0_911_12">
            <rect width="17" height="18" />
        </clipPath><symbol viewBox="0 0 19 20" id="i-phone">
    <path d="M14.0672 19.3606C15.7152 19.3606 16.8358 18.8897 17.8528 17.788C17.9187 17.7126 17.9846 17.6279 18.0505 17.5526C18.6061 16.931 18.8792 16.2813 18.8792 15.6786C18.8792 14.9723 18.5025 14.332 17.6644 13.7576L14.8582 11.7989C13.973 11.1868 12.9466 11.1397 12.1556 11.9307L11.4587 12.6275C11.2139 12.8724 10.9785 12.8912 10.696 12.6935C10.1875 12.3544 9.22695 11.5069 8.56777 10.8478C7.89917 10.1792 7.22116 9.42581 6.8539 8.85138C6.65615 8.55946 6.67498 8.33345 6.91982 8.08861L7.61666 7.39177C8.40768 6.60075 8.3606 5.57432 7.73908 4.68913L5.74271 1.83582C5.18712 1.02597 4.51852 0.649301 3.81226 0.639884C3.20958 0.630467 2.56923 0.903556 1.94772 1.44973C1.87238 1.51565 1.79705 1.58157 1.72171 1.64749C0.601109 2.67392 0.12085 3.7757 0.12085 5.48956C0.12085 8.26754 1.73113 11.5446 4.86694 14.6616C7.98392 17.7597 11.2233 19.3606 14.0672 19.3606ZM14.0672 17.788C11.6659 17.8256 8.68077 16.1212 6.06288 13.5221C3.42617 10.9231 1.67463 7.82494 1.7123 5.42365C1.73113 4.41604 2.08897 3.53086 2.79524 2.90935C2.87057 2.85284 2.92707 2.80576 3.00241 2.74926C3.26608 2.52325 3.54858 2.40084 3.81226 2.40084C4.08534 2.40084 4.33018 2.51384 4.51852 2.79634L6.27947 5.44248C6.50548 5.76265 6.51489 6.12991 6.1853 6.45008L5.43195 7.19401C4.71627 7.89086 4.78219 8.71013 5.2342 9.35047C5.74271 10.0567 6.69381 11.1397 7.49425 11.9307C8.35118 12.7782 9.51887 13.8235 10.1969 14.3132C10.8372 14.7652 11.6565 14.8311 12.3533 14.1154L13.0973 13.3621C13.408 13.0325 13.7753 13.0419 14.1049 13.2585L16.7039 14.9912C16.9959 15.1795 17.0994 15.4149 17.0994 15.688C17.0994 15.9517 16.977 16.2342 16.751 16.5073C16.6945 16.5732 16.6474 16.6297 16.5909 16.705C15.9694 17.4207 15.0842 17.7786 14.0672 17.788Z" />
</symbol><symbol viewBox="0 0 23 23" fill="none" id="i-search">
<g clip-path="url(#i-search_clip0_2_455)">
<path d="M22.0413 23.0001C21.796 23.0001 21.5506 22.9062 21.3637 22.7193L14.6746 16.0302C14.2999 15.6554 14.2999 15.0498 14.6746 14.6751C15.0493 14.3004 15.655 14.3004 16.0297 14.6751L22.7188 21.3642C23.0935 21.7389 23.0935 22.3446 22.7188 22.7193C22.532 22.9062 22.2866 23.0001 22.0413 23.0001Z" fill="white" />
<path d="M9.34375 18.6875C4.19175 18.6875 0 14.4957 0 9.34375C0 4.19175 4.19175 0 9.34375 0C14.4957 0 18.6875 4.19175 18.6875 9.34375C18.6875 14.4957 14.4957 18.6875 9.34375 18.6875ZM9.34375 1.91667C5.24879 1.91667 1.91667 5.24879 1.91667 9.34375C1.91667 13.4387 5.24879 16.7708 9.34375 16.7708C13.4387 16.7708 16.7708 13.4387 16.7708 9.34375C16.7708 5.24879 13.4387 1.91667 9.34375 1.91667Z" fill="white" />
</g>
<defs>

</defs>
</symbol><clipPath id="i-search_clip0_2_455">
<rect width="23" height="23" fill="white" />
</clipPath></defs></svg>